<?xml version="1.0" encoding="utf-8"?>
<!-- Generator: Adobe Illustrator 22.0.0, SVG Export Plug-In . SVG Version: 6.00 Build 0)  -->
<svg version="1.1" id="Layer_1" xmlns="http://www.w3.org/2000/svg" xmlns:xlink="http://www.w3.org/1999/xlink" x="0px" y="0px"
	 viewBox="0 0 27.1 27.1" enable-background="new 0 0 27.1 27.1" xml:space="preserve">
<g>
	<g>
		<path fill="#FFFFFF" d="M13.6,27.1C6.1,27.1,0,21,0,13.5C0,6.1,6.1,0,13.6,0s13.6,6.1,13.6,13.5C27.1,21,21,27.1,13.6,27.1z
			 M13.6,2C7.2,2,2,7.2,2,13.5s5.2,11.5,11.6,11.5s11.6-5.2,11.6-11.5S19.9,2,13.6,2z"/>
	</g>
</g>
<g>
	<path fill="#FFFFFF" d="M12.9,9.9c-0.1,0.1-0.2,0.2-0.1,0.3s0.1,0.2,0.1,0.3l2.3,2.2H9.7c-0.1,0-0.2,0-0.3,0.1
		c-0.1,0.1-0.1,0.2-0.1,0.3v0.6c0,0.1,0,0.2,0.1,0.3c0.1,0.1,0.2,0.1,0.3,0.1h5.6l-2.3,2.2c-0.1,0.1-0.1,0.2-0.1,0.3
		c0,0.1,0,0.2,0.1,0.3l0.4,0.4c0.1,0.1,0.2,0.1,0.3,0.1c0.1,0,0.2,0,0.3-0.1l3.8-3.8c0.1-0.1,0.1-0.2,0.1-0.3c0-0.1,0-0.2-0.1-0.3
		L14,9.4c-0.1-0.1-0.2-0.1-0.3-0.1c-0.1,0-0.2,0-0.3,0.1L12.9,9.9z"/>
</g>
</svg>
