<svg xmlns="http://www.w3.org/2000/svg" viewBox="0 0 43.32 43.32"><title>icon-phone</title><path d="M37,6.34A21.66,21.66,0,0,0,6.34,37,21.64,21.64,0,0,0,37,37,21.64,21.64,0,0,0,37,6.34ZM35.91,35.91A20.16,20.16,0,0,1,1.5,21.66,20.18,20.18,0,0,1,21.66,1.5,20.15,20.15,0,0,1,35.91,35.91Z" fill="#019d3a"/><path d="M31,25.78l-.88-.48c-.54-.3-1.08-.6-1.59-.9l-.25-.17a2.51,2.51,0,0,0-1.41-.59c-.8,0-1.44.78-2.11,1.62a7.35,7.35,0,0,1-.84.93,3.23,3.23,0,0,1-.58-.31l-.22-.13a13.42,13.42,0,0,1-5.53-5.54l-.12-.2a4.71,4.71,0,0,1-.32-.58,7.52,7.52,0,0,1,.94-.84c.83-.67,1.62-1.31,1.62-2.12a2.51,2.51,0,0,0-.59-1.4l-.17-.24-.9-1.6-.48-.88c-.3-.62-.62-1.19-1.09-1.34a1.47,1.47,0,0,0-.59-.1,6.91,6.91,0,0,0-2.27.5,4.42,4.42,0,0,0-1.87,2.06,6.18,6.18,0,0,0-.81,3,9.7,9.7,0,0,0,.82,3.44l.2.54a14.23,14.23,0,0,0,1.25,2.63,24.48,24.48,0,0,0,7.06,7.06,14.26,14.26,0,0,0,2.63,1.25l.54.2a9.7,9.7,0,0,0,3.43.82,6.23,6.23,0,0,0,3-.82,4.36,4.36,0,0,0,2-1.85,7,7,0,0,0,.51-2.28,1.41,1.41,0,0,0-.08-.54A2.43,2.43,0,0,0,31,25.78Zm-.44,3.35c-.2.48-.93.88-1.4,1.15a4.69,4.69,0,0,1-2.29.63,8.41,8.41,0,0,1-2.9-.72L23.38,30A12.2,12.2,0,0,1,21,28.86a23.26,23.26,0,0,1-6.58-6.57,13.14,13.14,0,0,1-1.11-2.35l-.21-.56a8.4,8.4,0,0,1-.72-2.91A4.62,4.62,0,0,1,13,14.2c.26-.48.66-1.21,1.16-1.42a5.38,5.38,0,0,1,1.66-.37,4.68,4.68,0,0,1,.33.6l.52.94q.45.83.93,1.65a3.15,3.15,0,0,0,.22.33l.33.47a5.06,5.06,0,0,1-1.07,1c-.81.66-1.51,1.22-1.51,1.95a2.94,2.94,0,0,0,.55,1.43l.1.16a14.83,14.83,0,0,0,6.09,6.09l.17.11a2.94,2.94,0,0,0,1.43.55c.73,0,1.29-.7,1.94-1.51a8.9,8.9,0,0,1,.95-1.06,2.21,2.21,0,0,1,.54.31l.35.24c.54.31,1.08.62,1.63.92l.95.52a4.09,4.09,0,0,1,.6.33A5.53,5.53,0,0,1,30.53,29.13Z" fill="#019d3a"/></svg>