<svg xmlns="http://www.w3.org/2000/svg" viewBox="0 0 43.32 43.32" ><title>icon-money</title><path d="M37,6.34A21.66,21.66,0,0,0,6.34,37,21.66,21.66,0,1,0,37,6.34ZM35.91,35.91A20.16,20.16,0,0,1,7.4,7.41a20.15,20.15,0,0,1,28.51,0,20.13,20.13,0,0,1,0,28.5Z" fill="#66a566"/><path d="M27.89,16.87a.75.75,0,1,0,1.5,0c0-2.87-3.07-5.24-7-5.51V9.42a.75.75,0,1,0-1.5,0v1.94c-3.91.27-7,2.64-7,5.51s3.07,5.24,7,5.51v8.08c-3.08-.25-5.48-1.95-5.48-4a.75.75,0,1,0-1.5,0c0,2.87,3.07,5.24,7,5.51V33.9a.75.75,0,0,0,1.5,0V32c3.91-.27,7-2.64,7-5.51s-3.07-5.24-7-5.51V12.86C25.45,13.11,27.89,14.84,27.89,16.87Zm-12.46,0c0-2,2.44-3.76,5.48-4v8C17.87,20.63,15.43,18.89,15.43,16.87Zm12.46,9.58c0,2-2.44,3.75-5.48,4v-8C25.45,22.69,27.89,24.42,27.89,26.45Z" fill="#66a566"/></svg>